<svg width="152" height="59" viewBox="0 0 152 59" fill="none" xmlns="http://www.w3.org/2000/svg">
<path d="M30.0906 2.63252C44.5481 3.64362 55.4483 16.1837 54.4373 30.6413C53.4262 45.0987 40.887 55.9989 26.4295 54.9881C11.972 53.9771 1.07091 41.4378 2.08176 26.9802C3.09273 12.5226 15.633 1.62155 30.0906 2.63252ZM30.0215 3.62035C16.1092 2.64751 4.04242 13.137 3.06958 27.0493C2.09687 40.9615 12.5863 53.0284 26.4985 54.0012C40.4106 54.9739 52.4775 44.4843 53.4505 30.5723C54.4233 16.6601 43.9337 4.5933 30.0215 3.62035Z" fill="black" stroke="black" stroke-width="0.370726"/>
<path d="M26.1917 6.2041L25.6878 13.4101L28.39 13.599L28.6419 9.99604L31.5848 13.8224L33.3863 13.9484L33.8902 6.74244L31.188 6.55348L30.999 9.25571L28.8939 6.39306L26.1917 6.2041Z" fill="black"/>
<path d="M44.2122 26.2783L43.7083 33.4843L49.1127 33.8622C49.3614 33.8796 49.5786 33.8076 49.7643 33.6461C49.9547 33.485 50.0588 33.2778 50.0765 33.0244L50.1395 32.1237L46.5365 31.8718L46.5995 30.971L49.3087 31.1605L49.4277 29.3585L46.7254 29.1695L46.7884 28.2688L50.3914 28.5207L50.4544 27.62C50.4718 27.3713 50.3974 27.154 50.2313 26.9679C50.0702 26.7775 49.8653 26.6736 49.6166 26.6562L44.2122 26.2783Z" fill="black"/>
<path d="M23.8992 50.2031C24.0606 50.3888 24.268 50.4905 24.5214 50.5082L29.0251 50.8231C29.2737 50.8405 29.4909 50.7685 29.6766 50.6071C29.867 50.4459 29.9711 50.2387 29.9888 49.9854L30.1778 47.2831C30.1952 47.0345 30.1208 46.8172 29.9547 46.6311C29.7935 46.4407 29.5887 46.3368 29.34 46.3194L26.6378 46.1305L26.7008 45.2297L30.3038 45.4817L30.3667 44.5809C30.3841 44.3323 30.3098 44.1149 30.1436 43.9289C29.9825 43.7385 29.7776 43.6346 29.529 43.6172L25.0253 43.3022C24.7719 43.2845 24.5522 43.3587 24.3662 43.5249C24.1805 43.6863 24.0789 43.8914 24.0615 44.14L23.8726 46.8422C23.8549 47.0956 23.9267 47.3151 24.0882 47.5008C24.2496 47.6865 24.457 47.7883 24.7103 47.806L27.4126 47.9949L27.3496 48.8957L23.7466 48.6437L23.6836 49.5445C23.6659 49.7978 23.7378 50.0173 23.8992 50.2031Z" fill="black"/>
<path d="M6.57739 23.6465L9.67648 31.1044L10.7032 29.3659L11.478 31.2304L15.5848 24.2763L12.8826 24.0874L11.8559 25.8259L11.0811 23.9614L10.0544 25.6999L9.27963 23.8354L6.57739 23.6465Z" fill="black"/>
<path d="M34.1124 29.9698L40.1792 29.6274L34.2191 28.4441C34.1485 27.2106 33.7014 26.0671 32.9829 25.1367L34.8321 23.0662L32.5244 24.6094C31.703 23.7685 30.6329 23.1663 29.4212 22.9248L29.0789 16.858L27.8955 22.8181C26.6621 22.8887 25.5186 23.3359 24.5881 24.0544L22.5175 22.2051L24.0607 24.5128C23.2198 25.3342 22.6178 26.4043 22.3762 27.6159L16.3095 27.9583L22.2696 29.1417C22.3402 30.3751 22.7874 31.5186 23.5059 32.449L21.6565 34.5196L23.9642 32.9764C24.7857 33.8174 25.8558 34.4195 27.0674 34.661L27.4098 40.7278L28.5932 34.7676C29.8266 34.6971 30.9701 34.2498 31.9006 33.5313L33.9711 35.3806L32.428 33.0728C33.2688 32.2515 33.8709 31.1813 34.1124 29.9698ZM28.8099 30.1089C28.6219 30.1898 28.4141 30.2308 28.1972 30.2236C28.1796 30.223 28.1622 30.2238 28.1444 30.2225C28.1267 30.2213 28.1096 30.2181 28.0921 30.2162C27.8763 30.1932 27.6762 30.1237 27.5013 30.0173C27.2469 29.8626 27.0463 29.6318 26.9285 29.3584C26.8475 29.1704 26.8065 28.9626 26.8137 28.7456C26.8144 28.728 26.8135 28.7106 26.8148 28.6929C26.816 28.6752 26.8192 28.6581 26.8211 28.6406C26.8441 28.4248 26.9136 28.2246 27.02 28.0498C27.1748 27.7953 27.4055 27.5947 27.6791 27.4769C27.8672 27.3959 28.0749 27.3549 28.2918 27.3622C28.3094 27.3628 28.3267 27.362 28.3445 27.3632C28.3622 27.3645 28.3792 27.3676 28.3968 27.3696C28.6126 27.3925 28.8126 27.462 28.9875 27.5684C29.242 27.7232 29.4427 27.954 29.5605 28.2276C29.6414 28.4156 29.6824 28.6234 29.6752 28.8402C29.6746 28.8579 29.6754 28.8752 29.6741 28.8929C29.6729 28.9107 29.6697 28.9277 29.6678 28.9453C29.6448 29.161 29.5753 29.3611 29.469 29.536C29.3142 29.7903 29.0834 29.991 28.8099 30.1089Z" fill="black"/>
<path d="M140.38 27.3304H135.885C134.779 27.3304 133.985 27.0536 133.501 26.4999C133.019 25.9401 132.873 25.1218 133.063 24.0448L134.325 16.8895C134.515 15.8125 134.949 14.9942 135.629 14.4344C136.308 13.8746 137.201 13.5947 138.307 13.5947H142.802C143.908 13.5947 144.702 13.8746 145.184 14.4344C145.666 14.9942 145.812 15.8125 145.622 16.8895L145.552 17.1815L141.69 17.6379L141.714 17.501C141.756 17.2637 141.738 17.0842 141.661 16.9625C141.585 16.8347 141.392 16.7708 141.083 16.7708H138.905C138.652 16.7708 138.452 16.8195 138.305 16.9168C138.165 17.0081 138.069 17.2028 138.017 17.501L136.972 23.4242C136.93 23.6615 136.948 23.844 137.024 23.9718C137.101 24.0935 137.295 24.1543 137.603 24.1543H139.781C140.035 24.1543 140.231 24.1087 140.371 24.0174C140.518 23.9201 140.617 23.7223 140.67 23.4242L140.693 23.2964L144.395 23.7436L144.36 24.0448C144.17 25.1218 143.736 25.9401 143.056 26.4999C142.378 27.0536 141.486 27.3304 140.38 27.3304Z" fill="black"/>
<path d="M129.661 27.1476H125.871L128.227 13.7861H132.017L129.661 27.1476Z" fill="black"/>
<path d="M119.695 27.3304H115.144C114.038 27.3304 113.244 27.0536 112.761 26.4999C112.279 25.9401 112.133 25.1218 112.322 24.0448C112.354 23.8684 112.377 23.768 112.394 23.7436L116.254 23.2964L116.232 23.4242C116.19 23.6615 116.207 23.844 116.283 23.9718C116.361 24.0935 116.554 24.1543 116.863 24.1543H119.096C119.349 24.1543 119.546 24.1087 119.686 24.0174C119.833 23.9201 119.932 23.7223 119.985 23.4242L120.051 23.05C120.083 22.8675 120.065 22.7245 119.997 22.621C119.92 22.5298 119.581 22.4385 118.979 22.3472L116.024 21.9183C114.878 21.7601 114.094 21.4437 113.671 20.9691C113.254 20.4945 113.128 19.7887 113.294 18.8517L113.64 16.8895C113.83 15.8125 114.264 14.9942 114.944 14.4344C115.623 13.8746 116.516 13.5947 117.622 13.5947H122.061C123.167 13.5947 123.961 13.8746 124.443 14.4344C124.925 14.9942 125.071 15.8125 124.881 16.8895L124.811 17.1815L120.95 17.6379L120.974 17.501C121.016 17.2637 120.998 17.0842 120.92 16.9625C120.844 16.8347 120.651 16.7708 120.342 16.7708H118.257C117.998 16.7708 117.792 16.8195 117.638 16.9168C117.486 17.0081 117.384 17.2028 117.332 17.501L117.275 17.8204C117.24 18.0212 117.258 18.1642 117.329 18.2493C117.411 18.3467 117.756 18.441 118.364 18.5323L121.328 18.9612C122.474 19.1194 123.252 19.4358 123.663 19.9104C124.073 20.385 124.194 21.103 124.024 22.0643L123.675 24.0448C123.485 25.1218 123.051 25.9401 122.371 26.4999C121.693 27.0536 120.801 27.3304 119.695 27.3304Z" fill="black"/>
<path d="M105.886 27.3304H101.336C100.23 27.3304 99.4352 27.0536 98.9521 26.4999C98.47 25.9401 98.3239 25.1218 98.5138 24.0448C98.5449 23.8684 98.5688 23.768 98.5855 23.7436L102.445 23.2964L102.423 23.4242C102.381 23.6615 102.398 23.844 102.475 23.9718C102.552 24.0935 102.745 24.1543 103.054 24.1543H105.288C105.541 24.1543 105.737 24.1087 105.877 24.0174C106.024 23.9201 106.124 23.7223 106.176 23.4242L106.242 23.05C106.274 22.8675 106.256 22.7245 106.188 22.621C106.112 22.5298 105.772 22.4385 105.171 22.3472L102.216 21.9183C101.07 21.7601 100.285 21.4437 99.8624 20.9691C99.4457 20.4945 99.3199 19.7887 99.4851 18.8517L99.8311 16.8895C100.021 15.8125 100.456 14.9942 101.135 14.4344C101.815 13.8746 102.707 13.5947 103.813 13.5947H108.252C109.358 13.5947 110.152 13.8746 110.634 14.4344C111.116 14.9942 111.262 15.8125 111.073 16.8895L111.003 17.1815L107.141 17.6379L107.165 17.501C107.207 17.2637 107.189 17.0842 107.112 16.9625C107.035 16.8347 106.843 16.7708 106.534 16.7708H104.449C104.189 16.7708 103.983 16.8195 103.83 16.9168C103.678 17.0081 103.576 17.2028 103.523 17.501L103.467 17.8204C103.431 18.0212 103.449 18.1642 103.521 18.2493C103.602 18.3467 103.947 18.441 104.555 18.5323L107.519 18.9612C108.665 19.1194 109.444 19.4358 109.854 19.9104C110.265 20.385 110.385 21.103 110.216 22.0643L109.867 24.0448C109.677 25.1218 109.242 25.9401 108.562 26.4999C107.884 27.0536 106.992 27.3304 105.886 27.3304Z" fill="black"/>
<path d="M96.0761 27.1476H92.1837L91.8889 24.51H87.3663L86.1321 27.1476H82.2397L88.729 13.7861H94.2895L96.0761 27.1476ZM90.9955 16.7523L88.8439 21.3339H91.5222L90.9955 16.7523Z" fill="black"/>
<path d="M77.5617 13.7861L75.7657 23.9715H81.4652L80.9052 27.1476H71.4152L73.7712 13.7861H77.5617Z" fill="black"/>
<path d="M65.4241 27.3304H60.9294C59.8235 27.3304 59.0289 27.0536 58.5458 26.4999C58.0637 25.9401 57.9177 25.1218 58.1076 24.0448L59.3692 16.8895C59.5591 15.8125 59.9938 14.9942 60.6733 14.4344C61.3528 13.8746 62.2454 13.5947 63.3514 13.5947H67.8461C68.952 13.5947 69.746 13.8746 70.2281 14.4344C70.7101 14.9942 70.8562 15.8125 70.6663 16.8895L70.5963 17.1815L66.7347 17.6379L66.7588 17.501C66.8007 17.2637 66.7829 17.0842 66.7055 16.9625C66.6292 16.8347 66.4366 16.7708 66.1276 16.7708H63.9498C63.6965 16.7708 63.4964 16.8195 63.3494 16.9168C63.2098 17.0081 63.1137 17.2028 63.0611 17.501L62.0167 23.4242C61.9748 23.6615 61.9921 23.844 62.0684 23.9718C62.1458 24.0935 62.3389 24.1543 62.6479 24.1543H64.8257C65.079 24.1543 65.2755 24.1087 65.4152 24.0174C65.5621 23.9201 65.6618 23.7223 65.7144 23.4242L65.7369 23.2964L69.4392 23.7436L69.4047 24.0448C69.2148 25.1218 68.7801 25.9401 68.1006 26.4999C67.4222 27.0536 66.5301 27.3304 65.4241 27.3304Z" fill="black"/>
<path d="M148.846 43.1174H144.416L142.212 38.5358H140.896L140.088 43.1174H136.297L138.653 29.7559H146.225C147.331 29.7559 148.125 30.0357 148.607 30.5955C149.09 31.1492 149.237 31.9645 149.047 33.0415L148.657 35.2501C148.562 35.7917 148.396 36.2754 148.16 36.7013C147.931 37.1272 147.659 37.4588 147.346 37.6961C147.033 37.9273 146.737 38.1007 146.457 38.2163L148.846 43.1174ZM144.506 32.932H141.884L141.456 35.3597H144.078C144.332 35.3597 144.528 35.314 144.668 35.2228C144.815 35.1254 144.914 34.9277 144.967 34.6295L145.138 33.6621C145.179 33.4248 145.162 33.2453 145.084 33.1236C145.008 32.9958 144.815 32.932 144.506 32.932Z" fill="black"/>
<path d="M135.891 29.7559L135.331 32.932H129.446L129.134 34.7025H134.222L133.66 37.8878H128.573L128.211 39.9413H134.095L133.535 43.1174H123.86L126.216 29.7559H135.891Z" fill="black"/>
<path d="M112.834 29.7559H124.029L123.469 32.932H119.771L117.975 43.1174H114.176L115.972 32.932H112.274L112.834 29.7559Z" fill="black"/>
<path d="M110.293 43.1174H105.863L103.659 38.5358H102.343L101.535 43.1174H97.7443L100.1 29.7559H107.672C108.778 29.7559 109.572 30.0357 110.054 30.5955C110.537 31.1492 110.684 31.9645 110.494 33.0415L110.104 35.2501C110.009 35.7917 109.843 36.2754 109.607 36.7013C109.378 37.1272 109.106 37.4588 108.793 37.6961C108.48 37.9273 108.184 38.1007 107.904 38.2163L110.293 43.1174ZM105.953 32.932H103.331L102.903 35.3597H105.525C105.779 35.3597 105.975 35.314 106.115 35.2228C106.262 35.1254 106.361 34.9277 106.414 34.6295L106.585 33.6621C106.626 33.4248 106.609 33.2453 106.531 33.1236C106.455 32.9958 106.262 32.932 105.953 32.932Z" fill="black"/>
<path d="M95.5663 43.1174H91.674L91.3791 40.4797H86.8566L85.6223 43.1174H81.7299L88.2192 29.7559H93.7797L95.5663 43.1174ZM90.4857 32.722L88.3341 37.3037H91.0124L90.4857 32.722Z" fill="black"/>
<path d="M78.5259 29.7559H82.3256L80.5168 40.0143C80.3269 41.0912 79.8922 41.9096 79.2127 42.4694C78.5343 43.0231 77.6422 43.2999 76.5363 43.2999H72.2269C71.121 43.2999 70.3264 43.0231 69.8433 42.4694C69.3674 41.9096 69.2244 41.0912 69.4143 40.0143L71.2231 29.7559H75.0136L73.3142 39.3937C73.2723 39.631 73.2896 39.8135 73.3659 39.9413C73.4433 40.063 73.6364 40.1238 73.9453 40.1238H75.9379C76.1912 40.1238 76.3877 40.0782 76.5273 39.9869C76.6742 39.8896 76.774 39.6918 76.8265 39.3937L78.5259 29.7559Z" fill="black"/>
<path d="M67.8214 32.8592L66.5597 40.0145C66.3097 41.4322 65.6392 42.3966 64.5482 42.9077L65.6134 45.381H61.267L60.3828 43.3002H58.0844C56.9785 43.3002 56.184 43.0233 55.7008 42.4696C55.2188 41.9099 55.0727 41.0915 55.2626 40.0145L56.5243 32.8592C56.7142 31.7822 57.1489 30.9639 57.8283 30.4041C58.5078 29.8443 59.4005 29.5645 60.5064 29.5645H65.0011C66.1071 29.5645 66.9011 29.8443 67.3831 30.4041C67.8652 30.9639 68.0113 31.7822 67.8214 32.8592ZM60.2161 33.4707L59.1717 39.3939C59.1299 39.6312 59.1471 39.8138 59.2234 39.9415C59.3008 40.0632 59.494 40.1241 59.8029 40.1241H61.9808C62.2341 40.1241 62.4306 40.0784 62.5702 39.9872C62.7171 39.8898 62.8169 39.6921 62.8694 39.3939L63.9139 33.4707C63.9557 33.2334 63.9379 33.0539 63.8605 32.9322C63.7842 32.8044 63.5916 32.7405 63.2827 32.7405H61.1048C60.8515 32.7405 60.6514 32.7892 60.5045 32.8866C60.3648 32.9778 60.2687 33.1725 60.2161 33.4707Z" fill="black"/>
</svg>
