<svg width="512" height="512" viewBox="0 0 512 512" fill="none" xmlns="http://www.w3.org/2000/svg">
<g clip-path="url(#clip0_174_3088)">
<rect width="512" height="512" fill="white"/>
<path d="M273.646 2.79846C413.545 12.5812 519.025 133.923 509.243 273.822C499.46 413.721 378.119 519.201 238.219 509.419C98.3202 499.636 -7.16032 378.295 2.62239 238.395C12.4052 98.4963 133.747 -6.98416 273.646 2.79846ZM272.978 12.3542C138.356 2.94063 21.5919 104.442 12.1782 239.064C2.76447 373.686 104.266 490.45 238.888 499.864C373.51 509.278 490.274 407.776 499.688 273.154C509.102 138.532 407.599 21.7679 272.978 12.3542Z" fill="black" stroke="black" stroke-width="3.58733"/>
<path d="M235.919 37.3535L231.043 107.082L257.191 108.91L259.629 74.0462L288.106 111.072L305.538 112.291L310.414 42.5627L284.266 40.7343L282.437 66.8825L262.067 39.182L235.919 37.3535Z" fill="black"/>
<path d="M410.295 231.597L405.419 301.325L457.715 304.982C460.121 305.15 462.223 304.453 464.02 302.891C465.862 301.332 466.869 299.327 467.041 296.876L467.65 288.159L432.786 285.722L433.395 277.005L459.612 278.839L460.763 261.402L434.614 259.573L435.224 250.857L470.088 253.295L470.698 244.579C470.866 242.173 470.146 240.07 468.539 238.27C466.98 236.427 464.997 235.422 462.591 235.254L410.295 231.597Z" fill="black"/>
<path d="M213.737 463.109C215.299 464.906 217.306 465.89 219.757 466.062L263.337 469.109C265.743 469.277 267.845 468.58 269.642 467.018C271.485 465.459 272.492 463.454 272.663 461.002L274.492 434.854C274.66 432.448 273.94 430.345 272.332 428.545C270.773 426.702 268.791 425.697 266.385 425.529L240.237 423.7L240.846 414.984L275.71 417.422L276.32 408.706C276.488 406.3 275.769 404.197 274.161 402.397C272.602 400.554 270.619 399.549 268.213 399.381L224.633 396.333C222.182 396.162 220.056 396.88 218.256 398.487C216.458 400.05 215.476 402.034 215.308 404.44L213.479 430.588C213.308 433.039 214.003 435.164 215.565 436.961C217.127 438.758 219.134 439.742 221.586 439.913L247.734 441.742L247.124 450.458L212.26 448.02L211.651 456.736C211.479 459.187 212.175 461.312 213.737 463.109Z" fill="black"/>
<path d="M46.1199 206.136L76.1082 278.302L86.0433 261.48L93.5404 279.521L133.281 212.231L107.132 210.402L97.1973 227.225L89.7002 209.183L79.7652 226.006L72.2681 207.964L46.1199 206.136Z" fill="black"/>
<path d="M312.564 267.32L371.269 264.007L313.596 252.556C312.913 240.621 308.586 229.556 301.634 220.553L319.528 200.517L297.197 215.45C289.249 207.313 278.894 201.487 267.17 199.149L263.857 140.444L252.406 198.117C240.471 198.8 229.406 203.128 220.402 210.08L200.366 192.185L215.298 214.516C207.162 222.464 201.336 232.819 198.999 244.543L140.294 247.856L197.967 259.307C198.65 271.242 202.978 282.307 209.93 291.31L192.034 311.346L214.365 296.414C222.313 304.552 232.668 310.377 244.393 312.715L247.706 371.419L259.157 313.746C271.092 313.064 282.157 308.736 291.161 301.783L311.196 319.678L296.265 297.346C304.401 289.399 310.227 279.043 312.564 267.32ZM261.254 268.666C259.435 269.449 257.424 269.846 255.325 269.776C255.155 269.77 254.986 269.778 254.815 269.766C254.643 269.754 254.478 269.723 254.308 269.705C252.22 269.482 250.283 268.809 248.591 267.78C246.13 266.283 244.189 264.05 243.049 261.404C242.265 259.585 241.868 257.574 241.938 255.474C241.944 255.304 241.936 255.136 241.948 254.964C241.96 254.793 241.991 254.628 242.009 254.458C242.232 252.37 242.905 250.433 243.934 248.741C245.432 246.279 247.665 244.337 250.312 243.198C252.132 242.414 254.142 242.017 256.24 242.088C256.411 242.094 256.579 242.086 256.75 242.098C256.922 242.11 257.087 242.14 257.257 242.159C259.345 242.381 261.28 243.054 262.973 244.083C265.435 245.58 267.377 247.814 268.517 250.462C269.3 252.281 269.697 254.291 269.627 256.39C269.621 256.561 269.629 256.728 269.617 256.9C269.605 257.071 269.574 257.236 269.556 257.406C269.333 259.494 268.66 261.43 267.632 263.123C266.134 265.584 263.901 267.526 261.254 268.666Z" fill="black"/>
</g>
<defs>
<clipPath id="clip0_174_3088">
<rect width="512" height="512" fill="white"/>
</clipPath>
</defs>
</svg>
