<svg width="152" height="59" viewBox="0 0 152 59" fill="none" xmlns="http://www.w3.org/2000/svg">
<path d="M30.0906 2.63252C44.5481 3.64362 55.4483 16.1837 54.4373 30.6413C53.4262 45.0987 40.887 55.9989 26.4295 54.9881C11.972 53.9771 1.07091 41.4378 2.08176 26.9802C3.09273 12.5226 15.633 1.62155 30.0906 2.63252ZM30.0215 3.62035C16.1092 2.64751 4.04242 13.137 3.06958 27.0493C2.09687 40.9615 12.5863 53.0284 26.4985 54.0012C40.4106 54.9739 52.4775 44.4843 53.4505 30.5723C54.4233 16.6601 43.9337 4.5933 30.0215 3.62035Z" fill="black" stroke="black" stroke-width="0.370726"/>
<path d="M26.1917 6.2041L25.6878 13.4101L28.39 13.599L28.6419 9.99604L31.5848 13.8224L33.3863 13.9484L33.8902 6.74244L31.188 6.55348L30.999 9.25571L28.8939 6.39306L26.1917 6.2041Z" fill="black"/>
<path d="M44.2122 26.2783L43.7083 33.4843L49.1127 33.8622C49.3614 33.8796 49.5786 33.8076 49.7643 33.6461C49.9547 33.485 50.0588 33.2778 50.0765 33.0244L50.1395 32.1237L46.5365 31.8718L46.5995 30.971L49.3087 31.1605L49.4277 29.3585L46.7254 29.1695L46.7884 28.2688L50.3914 28.5207L50.4544 27.62C50.4718 27.3713 50.3974 27.154 50.2313 26.9679C50.0702 26.7775 49.8653 26.6736 49.6166 26.6562L44.2122 26.2783Z" fill="black"/>
<path d="M23.8992 50.2031C24.0606 50.3888 24.268 50.4905 24.5214 50.5082L29.0251 50.8231C29.2737 50.8405 29.4909 50.7685 29.6766 50.6071C29.867 50.4459 29.9711 50.2387 29.9888 49.9854L30.1778 47.2831C30.1952 47.0345 30.1208 46.8172 29.9547 46.6311C29.7935 46.4407 29.5887 46.3368 29.34 46.3194L26.6378 46.1305L26.7008 45.2297L30.3038 45.4817L30.3667 44.5809C30.3841 44.3323 30.3098 44.1149 30.1436 43.9289C29.9825 43.7385 29.7776 43.6346 29.529 43.6172L25.0253 43.3022C24.7719 43.2845 24.5522 43.3587 24.3662 43.5249C24.1805 43.6863 24.0789 43.8914 24.0615 44.14L23.8726 46.8422C23.8549 47.0956 23.9267 47.3151 24.0882 47.5008C24.2496 47.6865 24.457 47.7883 24.7103 47.806L27.4126 47.9949L27.3496 48.8957L23.7466 48.6437L23.6836 49.5445C23.6659 49.7978 23.7378 50.0173 23.8992 50.2031Z" fill="black"/>
<path d="M6.57739 23.6465L9.67648 31.1044L10.7032 29.3659L11.478 31.2304L15.5848 24.2763L12.8826 24.0874L11.8559 25.8259L11.0811 23.9614L10.0544 25.6999L9.27963 23.8354L6.57739 23.6465Z" fill="black"/>
<path d="M34.1124 29.9698L40.1792 29.6274L34.2191 28.4441C34.1485 27.2106 33.7014 26.0671 32.9829 25.1367L34.8321 23.0662L32.5244 24.6094C31.703 23.7685 30.6329 23.1663 29.4212 22.9248L29.0789 16.858L27.8955 22.8181C26.6621 22.8887 25.5186 23.3359 24.5881 24.0544L22.5175 22.2051L24.0607 24.5128C23.2198 25.3342 22.6178 26.4043 22.3762 27.6159L16.3095 27.9583L22.2696 29.1417C22.3402 30.3751 22.7874 31.5186 23.5059 32.449L21.6565 34.5196L23.9642 32.9764C24.7857 33.8174 25.8558 34.4195 27.0674 34.661L27.4098 40.7278L28.5932 34.7676C29.8266 34.6971 30.9701 34.2498 31.9006 33.5313L33.9711 35.3806L32.428 33.0728C33.2688 32.2515 33.8709 31.1813 34.1124 29.9698ZM28.8099 30.1089C28.6219 30.1898 28.4141 30.2308 28.1972 30.2236C28.1796 30.223 28.1622 30.2238 28.1444 30.2225C28.1267 30.2213 28.1096 30.2181 28.0921 30.2162C27.8763 30.1932 27.6762 30.1237 27.5013 30.0173C27.2469 29.8626 27.0463 29.6318 26.9285 29.3584C26.8475 29.1704 26.8065 28.9626 26.8137 28.7456C26.8144 28.728 26.8135 28.7106 26.8148 28.6929C26.816 28.6752 26.8192 28.6581 26.8211 28.6406C26.8441 28.4248 26.9136 28.2246 27.02 28.0498C27.1748 27.7953 27.4055 27.5947 27.6791 27.4769C27.8672 27.3959 28.0749 27.3549 28.2918 27.3622C28.3094 27.3628 28.3267 27.362 28.3445 27.3632C28.3622 27.3645 28.3792 27.3676 28.3968 27.3696C28.6126 27.3925 28.8126 27.462 28.9875 27.5684C29.242 27.7232 29.4427 27.954 29.5605 28.2276C29.6414 28.4156 29.6824 28.6234 29.6752 28.8402C29.6746 28.8579 29.6754 28.8752 29.6741 28.8929C29.6729 28.9107 29.6697 28.9277 29.6678 28.9453C29.6448 29.161 29.5753 29.3611 29.469 29.536C29.3142 29.7903 29.0834 29.991 28.8099 30.1089Z" fill="black"/>
<path d="M140.38 27.3304H135.885C134.779 27.3304 133.985 27.0536 133.501 26.4999C133.019 25.9401 132.873 25.1218 133.063 24.0448L134.325 16.8895C134.515 15.8125 134.949 14.9942 135.629 14.4344C136.308 13.8746 137.201 13.5947 138.307 13.5947H142.802C143.908 13.5947 144.702 13.8746 145.184 14.4344C145.666 14.9942 145.812 15.8125 145.622 16.8895L145.552 17.1815L141.69 17.6379L141.714 17.501C141.756 17.2637 141.738 17.0842 141.661 16.9625C141.585 16.8347 141.392 16.7708 141.083 16.7708H138.905C138.652 16.7708 138.452 16.8195 138.305 16.9168C138.165 17.0081 138.069 17.2028 138.017 17.501L136.972 23.4242C136.93 23.6615 136.948 23.844 137.024 23.9718C137.101 24.0935 137.295 24.1543 137.603 24.1543H139.781C140.035 24.1543 140.231 24.1087 140.371 24.0174C140.518 23.9201 140.617 23.7223 140.67 23.4242L140.693 23.2964L144.395 23.7436L144.36 24.0448C144.17 25.1218 143.736 25.9401 143.056 26.4999C142.378 27.0536 141.486 27.3304 140.38 27.3304Z" fill="black"/>
<path d="M129.661 27.1476H125.871L128.227 13.7861H132.017L129.661 27.1476Z" fill="black"/>
<path d="M119.695 27.3304H115.144C114.038 27.3304 113.244 27.0536 112.761 26.4999C112.279 25.9401 112.133 25.1218 112.322 24.0448C112.354 23.8684 112.377 23.768 112.394 23.7436L116.254 23.2964L116.232 23.4242C116.19 23.6615 116.207 23.844 116.283 23.9718C116.361 24.0935 116.554 24.1543 116.863 24.1543H119.096C119.349 24.1543 119.546 24.1087 119.686 24.0174C119.833 23.9201 119.932 23.7223 119.985 23.4242L120.051 23.05C120.083 22.8675 120.065 22.7245 119.997 22.621C119.92 22.5298 119.581 22.4385 118.979 22.3472L116.024 21.9183C114.878 21.7601 114.094 21.4437 113.671 20.9691C113.254 20.4945 113.128 19.7887 113.294 18.8517L113.64 16.8895C113.83 15.8125 114.264 14.9942 114.944 14.4344C115.623 13.8746 116.516 13.5947 117.622 13.5947H122.061C123.167 13.5947 123.961 13.8746 124.443 14.4344C124.925 14.9942 125.071 15.8125 124.881 16.8895L124.811 17.1815L120.95 17.6379L120.974 17.501C121.016 17.2637 120.998 17.0842 120.92 16.9625C120.844 16.8347 120.651 16.7708 120.342 16.7708H118.257C117.998 16.7708 117.792 16.8195 117.638 16.9168C117.486 17.0081 117.384 17.2028 117.332 17.501L117.275 17.8204C117.24 18.0212 117.258 18.1642 117.329 18.2493C117.411 18.3467 117.756 18.441 118.364 18.5323L121.328 18.9612C122.474 19.1194 123.252 19.4358 123.663 19.9104C124.073 20.385 124.194 21.103 124.024 22.0643L123.675 24.0448C123.485 25.1218 123.051 25.9401 122.371 26.4999C121.693 27.0536 120.801 27.3304 119.695 27.3304Z" fill="black"/>
<path d="M105.886 27.3304H101.336C100.23 27.3304 99.4352 27.0536 98.9521 26.4999C98.47 25.9401 98.3239 25.1218 98.5138 24.0448C98.5449 23.8684 98.5688 23.768 98.5855 23.7436L102.445 23.2964L102.423 23.4242C102.381 23.6615 102.398 23.844 102.475 23.9718C102.552 24.0935 102.745 24.1543 103.054 24.1543H105.288C105.541 24.1543 105.737 24.1087 105.877 24.0174C106.024 23.9201 106.124 23.7223 106.176 23.4242L106.242 23.05C106.274 22.8675 106.256 22.7245 106.188 22.621C106.112 22.5298 105.772 22.4385 105.171 22.3472L102.216 21.9183C101.07 21.7601 100.285 21.4437 99.8624 20.9691C99.4457 20.4945 99.3199 19.7887 99.4851 18.8517L99.8311 16.8895C100.021 15.8125 100.456 14.9942 101.135 14.4344C101.815 13.8746 102.707 13.5947 103.813 13.5947H108.252C109.358 13.5947 110.152 13.8746 110.634 14.4344C111.116 14.9942 111.262 15.8125 111.073 16.8895L111.003 17.1815L107.141 17.6379L107.165 17.501C107.207 17.2637 107.189 17.0842 107.112 16.9625C107.035 16.8347 106.843 16.7708 106.534 16.7708H104.449C104.189 16.7708 103.983 16.8195 103.83 16.9168C103.678 17.0081 103.576 17.2028 103.523 17.501L103.467 17.8204C103.431 18.0212 103.449 18.1642 103.521 18.2493C103.602 18.3467 103.947 18.441 104.555 18.5323L107.519 18.9612C108.665 19.1194 109.444 19.4358 109.854 19.9104C110.265 20.385 110.385 21.103 110.216 22.0643L109.867 24.0448C109.677 25.1218 109.242 25.9401 108.562 26.4999C107.884 27.0536 106.992 27.3304 105.886 27.3304Z" fill="black"/>
<path d="M96.0761 27.1476H92.1837L91.8889 24.51H87.3663L86.1321 27.1476H82.2397L88.729 13.7861H94.2895L96.0761 27.1476ZM90.9955 16.7523L88.8439 21.3339H91.5222L90.9955 16.7523Z" fill="black"/>
<path d="M77.5617 13.7861L75.7657 23.9715H81.4652L80.9052 27.1476H71.4152L73.7712 13.7861H77.5617Z" fill="black"/>
<path d="M65.4241 27.3304H60.9294C59.8235 27.3304 59.0289 27.0536 58.5458 26.4999C58.0637 25.9401 57.9177 25.1218 58.1076 24.0448L59.3692 16.8895C59.5591 15.8125 59.9938 14.9942 60.6733 14.4344C61.3528 13.8746 62.2454 13.5947 63.3514 13.5947H67.8461C68.952 13.5947 69.746 13.8746 70.2281 14.4344C70.7101 14.9942 70.8562 15.8125 70.6663 16.8895L70.5963 17.1815L66.7347 17.6379L66.7588 17.501C66.8007 17.2637 66.7829 17.0842 66.7055 16.9625C66.6292 16.8347 66.4366 16.7708 66.1276 16.7708H63.9498C63.6965 16.7708 63.4964 16.8195 63.3494 16.9168C63.2098 17.0081 63.1137 17.2028 63.0611 17.501L62.0167 23.4242C61.9748 23.6615 61.9921 23.844 62.0684 23.9718C62.1458 24.0935 62.3389 24.1543 62.6479 24.1543H64.8257C65.079 24.1543 65.2755 24.1087 65.4152 24.0174C65.5621 23.9201 65.6618 23.7223 65.7144 23.4242L65.7369 23.2964L69.4392 23.7436L69.4047 24.0448C69.2148 25.1218 68.7801 25.9401 68.1006 26.4999C67.4222 27.0536 66.5301 27.3304 65.4241 27.3304Z" fill="black"/>
<path d="M148.846 43.1174H144.416L142.212 38.5358H140.896L140.088 43.1174H136.297L138.653 29.7559H146.225C147.331 29.7559 148.125 30.0357 148.607 30.5955C149.09 31.1492 149.237 31.9645 149.047 33.0415L148.657 35.2501C148.562 35.7917 148.396 36.2754 148.16 36.7013C147.931 37.1272 147.659 37.4588 147.346 37.6961C147.033 37.9273 146.737 38.1007 146.457 38.2163L148.846 43.1174ZM144.506 32.932H141.884L141.456 35.3597H144.078C144.332 35.3597 144.528 35.314 144.668 35.2228C144.815 35.1254 144.914 34.9277 144.967 34.6295L145.138 33.6621C145.179 33.4248 145.162 33.2453 145.084 33.1236C145.008 32.9958 144.815 32.932 144.506 32.932Z" fill="black"/>
<path d="M135.891 29.7559L135.331 32.932H129.446L129.134 34.7025H134.222L133.66 37.8878H128.573L128.211 39.9413H134.095L133.535 43.1174H123.86L126.216 29.7559H135.891Z" fill="black"/>
<path d="M112.834 29.7559H124.029L123.469 32.932H119.771L117.975 43.1174H114.176L115.972 32.932H112.274L112.834 29.7559Z" fill="black"/>
<path d="M110.293 43.1174H105.863L103.659 38.5358H102.343L101.535 43.1174H97.7443L100.1 29.7559H107.672C108.778 29.7559 109.572 30.0357 110.054 30.5955C110.537 31.1492 110.684 31.9645 110.494 33.0415L110.104 35.2501C110.009 35.7917 109.843 36.2754 109.607 36.7013C109.378 37.1272 109.106 37.4588 108.793 37.6961C108.48 37.9273 108.184 38.1007 107.904 38.2163L110.293 43.1174ZM105.953 32.932H103.331L102.903 35.3597H105.525C105.779 35.3597 105.975 35.314 106.115 35.2228C106.262 35.1254 106.361 34.9277 106.414 34.6295L106.585 33.6621C106.626 33.4248 106.609 33.2453 106.531 33.1236C106.455 32.9958 106.262 32.932 105.953 32.932Z" fill="black"/>
<path d="M95.5663 43.1174H91.674L91.3791 40.4797H86.8566L85.6223 43.1174H81.7299L88.2192 29.7559H93.7797L95.5663 43.1174ZM90.4857 32.722L88.3341 37.3037H91.0124L90.4857 32.722Z" fill="black"/>
<path d="M78.5259 29.7559H82.3256L80.5168 40.0143C80.3269 41.0912 79.8922 41.9096 79.2127 42.4694C78.5343 43.0231 77.6422 43.2999 76.5363 43.2999H72.2269C71.121 43.2999 70.3264 43.0231 69.8433 42.4694C69.3674 41.9096 69.2244 41.0912 69.4143 40.0143L71.2231 29.7559H75.0136L73.3142 39.3937C73.2723 39.631 73.2896 39.8135 73.3659 39.9413C73.4433 40.063 73.6364 40.1238 73.9453 40.1238H75.9379C76.1912 40.1238 76.3877 40.0782 76.5273 39.9869C76.6742 39.8896 76.774 39.6918 76.8265 39.3937L78.5259 29.7559Z" fill="black"/>
<path d="M67.8214 32.8592L66.5597 40.0145C66.3097 41.4322 65.6392 42.3966 64.5482 42.9077L65.6134 45.381H61.267L60.3828 43.3002H58.0844C56.9785 43.3002 56.184 43.0233 55.7008 42.4696C55.2188 41.9099 55.0727 41.0915 55.2626 40.0145L56.5243 32.8592C56.7142 31.7822 57.1489 30.9639 57.8283 30.4041C58.5078 29.8443 59.4005 29.5645 60.5064 29.5645H65.0011C66.1071 29.5645 66.9011 29.8443 67.3831 30.4041C67.8652 30.9639 68.0113 31.7822 67.8214 32.8592ZM60.2161 33.4707L59.1717 39.3939C59.1299 39.6312 59.1471 39.8138 59.2234 39.9415C59.3008 40.0632 59.494 40.1241 59.8029 40.1241H61.9808C62.2341 40.1241 62.4306 40.0784 62.5702 39.9872C62.7171 39.8898 62.8169 39.6921 62.8694 39.3939L63.9139 33.4707C63.9557 33.2334 63.9379 33.0539 63.8605 32.9322C63.7842 32.8044 63.5916 32.7405 63.2827 32.7405H61.1048C60.8515 32.7405 60.6514 32.7892 60.5045 32.8866C60.3648 32.9778 60.2687 33.1725 60.2161 33.4707Z" fill="black"/>
<path d="M137.41 46C141 46 143.91 48.9101 143.91 52.5C143.91 56.0899 141 59 137.41 59H69.4102C65.8203 59 62.9102 56.0899 62.9102 52.5C62.9102 48.9101 65.8203 46 69.4102 46H137.41ZM94.3145 51.2588C93.8286 51.2588 93.4267 51.4072 93.1133 51.7031V51.3301H92.3486V56.6084H93.1133V54.7266C93.4267 55.0227 93.8285 55.1718 94.3145 55.1719C94.8456 55.1719 95.295 54.985 95.6562 54.6133H95.6572C96.0184 54.2387 96.1972 53.7691 96.1973 53.2129C96.1972 52.6567 96.0178 52.1886 95.6562 51.8164C95.2951 51.4447 94.8456 51.2588 94.3145 51.2588ZM75.0889 51.2588C74.5577 51.2588 74.1083 51.4448 73.7471 51.8164C73.3856 52.1886 73.2061 52.6567 73.2061 53.2129C73.2061 53.7691 73.3849 54.2387 73.7461 54.6133H73.7471C74.1083 54.985 74.5577 55.1719 75.0889 55.1719C75.5765 55.1718 75.9793 55.0221 76.293 54.7246V55.1006H77.0547V51.3301H76.293V51.7051C75.978 51.4076 75.5748 51.2589 75.0889 51.2588ZM81.625 51.3301H80.8447V52.0391H81.625V53.752C81.625 54.2062 81.7335 54.5659 81.9688 54.8125L81.9697 54.8135C82.2071 55.0563 82.5393 55.1719 82.9502 55.1719C83.366 55.1717 83.7404 55.0461 84.0693 54.7969L84.1426 54.7422L84.0947 54.6641L83.8301 54.2383L83.7734 54.1465L83.6865 54.21C83.4714 54.3666 83.2413 54.4433 82.9951 54.4434C82.8013 54.4433 82.6569 54.3846 82.5508 54.2744C82.4473 54.1668 82.3867 53.995 82.3867 53.7402V52.0391H83.9287V51.3301H82.3867V50.1953H81.625V51.3301ZM88.2812 51.2588C87.7147 51.2588 87.244 51.4433 86.8789 51.8164C86.5149 52.1885 86.3341 52.6565 86.334 53.2129C86.334 53.7718 86.5147 54.242 86.8789 54.6143C87.244 54.9871 87.7148 55.1718 88.2812 55.1719C88.5573 55.1718 88.8171 55.1213 89.0586 55.0205H89.0596C89.3012 54.9169 89.5079 54.7683 89.6787 54.5762L89.7383 54.5088L89.6777 54.4424L89.3271 54.0586L89.2578 53.9814L89.1836 54.0537C88.9142 54.3159 88.6094 54.4443 88.2656 54.4443C87.9326 54.4443 87.6582 54.3286 87.4365 54.0977H87.4375C87.2185 53.8671 87.1065 53.5747 87.1064 53.2129C87.1065 52.8539 87.2184 52.5627 87.4375 52.332C87.6591 52.1015 87.9329 51.9864 88.2656 51.9863C88.6043 51.9863 88.9059 52.1122 89.1729 52.3721L89.2451 52.4434L89.3145 52.3701L89.6768 51.9893L89.7393 51.9229L89.6797 51.8545C89.5533 51.71 89.4053 51.5911 89.2373 51.498L89.0625 51.4131C88.8208 51.3096 88.5598 51.2588 88.2812 51.2588ZM98.6582 51.2588C98.1271 51.2588 97.6776 51.4448 97.3164 51.8164C96.9549 52.1886 96.7755 52.6567 96.7754 53.2129C96.7754 53.7691 96.9543 54.2387 97.3154 54.6133H97.3164C97.6776 54.985 98.127 55.1719 98.6582 55.1719C99.1458 55.1718 99.5486 55.022 99.8623 54.7246V55.1006H100.624V51.3301H99.8623V51.7051C99.5473 51.4076 99.1441 51.2589 98.6582 51.2588ZM106.593 51.3301H105.812V52.0391H106.593V53.752C106.593 54.2061 106.701 54.5659 106.937 54.8125L106.938 54.8135C107.175 55.0564 107.507 55.1719 107.918 55.1719C108.334 55.1718 108.708 55.0462 109.037 54.7969L109.11 54.7422L109.062 54.6641L108.798 54.2383L108.741 54.1465L108.654 54.21C108.439 54.3667 108.209 54.4434 107.963 54.4434C107.769 54.4433 107.625 54.3847 107.519 54.2744C107.415 54.1668 107.354 53.9949 107.354 53.7402V52.0391H108.896V51.3301H107.354V50.1953H106.593V51.3301ZM120.357 51.2588C119.826 51.2588 119.377 51.4448 119.016 51.8164C118.654 52.1886 118.475 52.6567 118.475 53.2129C118.475 53.7691 118.653 54.2387 119.015 54.6133H119.016C119.377 54.985 119.826 55.1719 120.357 55.1719C120.845 55.1718 121.248 55.022 121.562 54.7246V55.1006H122.323V51.3301H121.562V51.7051C121.247 51.4076 120.843 51.2589 120.357 51.2588ZM127.93 53.5107C127.93 53.7781 127.974 54.0217 128.065 54.2393V54.2402C128.159 54.4536 128.287 54.6309 128.451 54.7676C128.611 54.9012 128.794 55.0031 128.996 55.0723H128.997C129.201 55.1386 129.42 55.1718 129.65 55.1719C129.879 55.1719 130.094 55.1386 130.296 55.0723H130.297C130.502 55.0032 130.685 54.9014 130.846 54.7676C131.01 54.6309 131.138 54.4538 131.231 54.2402C131.326 54.0224 131.371 53.7786 131.371 53.5107V51.3301H130.605V53.458C130.605 53.7547 130.536 53.9758 130.406 54.1328L130.347 54.1963C130.178 54.3582 129.949 54.4434 129.65 54.4434C129.352 54.4433 129.121 54.3585 128.95 54.1963C128.783 54.0375 128.691 53.7968 128.691 53.458V51.3301H127.93V53.5107ZM134.06 51.2588C133.528 51.2588 133.079 51.4447 132.718 51.8164C132.356 52.1885 132.177 52.6567 132.177 53.2129C132.177 53.7691 132.356 54.2387 132.717 54.6133H132.718C133.079 54.9851 133.528 55.1718 134.06 55.1719C134.547 55.1719 134.95 55.022 135.264 54.7246V55.1006H136.025V51.3301H135.264V51.7051C134.949 51.4075 134.546 51.2588 134.06 51.2588ZM79.8916 51.2588C79.6573 51.2588 79.4398 51.3123 79.2412 51.4209L79.0996 51.5098C79.04 51.5525 78.9851 51.6016 78.9326 51.6543V51.3301H78.1748V55.1006H78.9365V53.002C78.9365 52.6864 79.0201 52.443 79.1787 52.2617C79.3373 52.0808 79.54 51.9902 79.7939 51.9902C80.0164 51.9903 80.2055 52.0349 80.3643 52.1211L80.4785 52.1826L80.5088 52.0566L80.6445 51.5029L80.6641 51.4229L80.5889 51.3877C80.3962 51.2997 80.1623 51.2588 79.8916 51.2588ZM103.604 51.2588C103.352 51.2588 103.112 51.3076 102.886 51.4062C102.74 51.4695 102.614 51.558 102.502 51.667V51.3301H101.744V55.1006H102.509V52.9873C102.509 52.6812 102.605 52.4445 102.791 52.2676C102.982 52.0854 103.218 51.9941 103.503 51.9941C103.809 51.9942 104.033 52.0822 104.188 52.248L104.188 52.249C104.347 52.4138 104.432 52.6504 104.432 52.9717V55.1006H105.193V52.7871C105.193 52.3338 105.046 51.9605 104.747 51.6777H104.748C104.452 51.3957 104.068 51.2588 103.604 51.2588ZM125.304 51.2588C125.052 51.2588 124.811 51.3077 124.585 51.4062C124.44 51.4695 124.313 51.558 124.201 51.667V51.3301H123.443V55.1006H124.208V52.9873C124.208 52.6812 124.304 52.4445 124.49 52.2676C124.682 52.0854 124.917 51.9941 125.202 51.9941C125.508 51.9942 125.732 52.0823 125.887 52.248L125.888 52.249C126.046 52.4138 126.131 52.6504 126.131 52.9717V55.1006H126.893V52.7871C126.893 52.3339 126.745 51.9605 126.446 51.6777H126.447C126.152 51.3957 125.767 51.2588 125.304 51.2588ZM68.5723 49.6221V55.0996H69.3789V52.9775H70.666C71.271 52.9775 71.7559 52.8355 72.1064 52.5391L72.1074 52.5381C72.4593 52.2373 72.6317 51.8206 72.6318 51.3018C72.6317 50.7827 72.4596 50.3653 72.1074 50.0645C71.7569 49.7652 71.2714 49.6221 70.666 49.6221H68.5723ZM84.7197 55.0996H85.4854V51.3301H84.7197V55.0996ZM90.4629 55.0996H91.2285V51.3301H90.4629V55.0996ZM111.801 55.0996H112.607V50.8857L114.253 54.457L114.279 54.5156H115.045L115.071 54.457L116.72 50.8594V55.0996H117.527V49.6221H116.439L116.413 49.6797L114.663 53.4707L112.911 49.6797L112.884 49.6221H111.801V55.0996ZM137.146 55.0996H137.911V49.4717H137.146V55.0996ZM107.775 55.0664L107.918 55.0713C107.869 55.0713 107.821 55.0698 107.774 55.0664C107.73 55.0631 107.687 55.0575 107.645 55.0508C107.687 55.0576 107.73 55.0631 107.775 55.0664ZM69.2793 52.8779V55H69.2783V52.8779H69.2793ZM122.224 55H122.223V51.4297H122.224V55ZM95.4531 54.668C95.365 54.7428 95.2716 54.8064 95.1738 54.8604C95.2214 54.834 95.2682 54.8057 95.3135 54.7744L95.4531 54.668ZM94.6914 54.4717C94.5558 54.5182 94.4083 54.5439 94.2471 54.5439L94.2461 54.543C94.4076 54.543 94.5557 54.5182 94.6914 54.4717ZM98.8613 54.5381L98.7256 54.5439L98.8604 54.5381L98.9902 54.5205C98.9483 54.5283 98.9053 54.5342 98.8613 54.5381ZM94.792 54.4326C94.7753 54.4402 94.7584 54.4473 94.7412 54.4541C94.7584 54.4473 94.7753 54.4402 94.792 54.4326ZM75.1562 51.9863C75.4998 51.9864 75.7775 52.1036 75.9961 52.3359C76.2153 52.5667 76.3271 52.8566 76.3271 53.2129C76.3271 53.5718 76.2153 53.8643 75.9961 54.0977C75.7776 54.3276 75.5002 54.4443 75.1562 54.4443C74.8077 54.4442 74.5279 54.3251 74.3096 54.0908C74.0896 53.8544 73.9785 53.5637 73.9785 53.2129C73.9786 52.8616 74.0891 52.5726 74.3066 52.3389L74.3906 52.2568C74.5953 52.0771 74.8486 51.9864 75.1562 51.9863ZM94.2461 51.9863C94.5922 51.9863 94.8713 52.1042 95.0898 52.3389C95.3097 52.5726 95.4208 52.8619 95.4209 53.2129C95.4209 53.5668 95.3103 53.8585 95.0928 54.0947C94.8772 54.3262 94.5979 54.4443 94.2461 54.4443C93.9023 54.4442 93.6247 54.3276 93.4062 54.0977C93.1872 53.8644 93.0762 53.5716 93.0762 53.2129C93.0762 52.8567 93.1872 52.5667 93.4062 52.3359H93.4072C93.6257 52.1036 93.9026 51.9865 94.2461 51.9863ZM98.7256 51.9863C99.0692 51.9864 99.3469 52.1036 99.5654 52.3359C99.7846 52.5667 99.8964 52.8566 99.8965 53.2129C99.8965 53.5718 99.7847 53.8643 99.5654 54.0977C99.347 54.3276 99.0695 54.4443 98.7256 54.4443C98.377 54.4442 98.0972 54.3251 97.8789 54.0908C97.659 53.8544 97.5479 53.5637 97.5479 53.2129C97.5479 52.8616 97.6585 52.5726 97.876 52.3389L97.96 52.2568C98.1647 52.0771 98.418 51.9864 98.7256 51.9863ZM120.425 51.9863C120.768 51.9864 121.046 52.1036 121.265 52.3359C121.484 52.5667 121.596 52.8567 121.596 53.2129C121.596 53.5718 121.484 53.8643 121.265 54.0977C121.046 54.3276 120.769 54.4442 120.425 54.4443C120.076 54.4442 119.796 54.3251 119.578 54.0908C119.358 53.8544 119.247 53.5637 119.247 53.2129C119.247 52.8616 119.358 52.5726 119.575 52.3389L119.659 52.2568C119.864 52.0771 120.117 51.9864 120.425 51.9863ZM134.127 51.9863C134.471 51.9863 134.748 52.1035 134.967 52.3359C135.186 52.5668 135.298 52.8565 135.298 53.2129C135.298 53.5719 135.186 53.8643 134.967 54.0977C134.748 54.3276 134.471 54.4443 134.127 54.4443C133.778 54.4442 133.499 54.3252 133.28 54.0908C133.06 53.8544 132.949 53.5637 132.949 53.2129C132.949 52.8617 133.06 52.5726 133.277 52.3389L133.361 52.2568C133.566 52.077 133.819 51.9864 134.127 51.9863ZM95.167 54.1631C95.0678 54.2697 94.9552 54.3522 94.8311 54.4141C94.8811 54.3891 94.9296 54.3614 94.9756 54.3291C95.0434 54.2816 95.107 54.2265 95.166 54.1631C95.175 54.1534 95.1828 54.1427 95.1914 54.1328C95.1829 54.1426 95.1758 54.1535 95.167 54.1631ZM93.5654 54.3564C93.5523 54.3481 93.5383 54.341 93.5254 54.332L93.5127 54.3223C93.5298 54.3345 93.5478 54.3452 93.5654 54.3564ZM81.7295 53.9121C81.7356 54.0075 81.7473 54.097 81.7646 54.1807C81.7555 54.1367 81.7472 54.0912 81.7412 54.0439L81.7295 53.9121ZM74.2373 54.1592L74.2568 54.1787C74.2503 54.172 74.2427 54.166 74.2363 54.1592C74.2101 54.131 74.1855 54.1019 74.1621 54.0723C74.1855 54.102 74.211 54.1309 74.2373 54.1592ZM97.8066 54.1592L97.8262 54.1787C97.8197 54.172 97.8121 54.1661 97.8057 54.1592C97.7794 54.131 97.7548 54.1019 97.7314 54.0723C97.7549 54.102 97.7803 54.1309 97.8066 54.1592ZM119.506 54.1592L119.525 54.1787C119.519 54.172 119.511 54.1661 119.505 54.1592C119.479 54.131 119.454 54.1019 119.431 54.0723C119.454 54.1019 119.48 54.1309 119.506 54.1592ZM95.3008 53.9883C95.2905 54.0042 95.2796 54.0197 95.2686 54.0352C95.2797 54.0197 95.2904 54.0041 95.3008 53.9883ZM128.059 53.8594C128.049 53.8071 128.042 53.7532 128.037 53.6982V53.6895C128.042 53.7476 128.049 53.8043 128.059 53.8594ZM128.62 53.7637C128.617 53.746 128.612 53.7282 128.609 53.71L128.607 53.6953C128.611 53.7186 128.616 53.7413 128.62 53.7637ZM99.9902 53.3535C99.9865 53.3994 99.9809 53.4443 99.9736 53.4883C99.981 53.444 99.9865 53.3988 99.9902 53.3525V53.3535ZM135.387 53.0176C135.394 53.0807 135.398 53.1458 135.398 53.2129C135.398 53.2844 135.394 53.3538 135.386 53.4209C135.394 53.3538 135.397 53.2844 135.397 53.2129C135.397 53.1458 135.394 53.0807 135.387 53.0176ZM87.042 53.5469C87.0379 53.5278 87.0326 53.5088 87.0293 53.4893L87.0273 53.4727C87.0313 53.4978 87.0368 53.5224 87.042 53.5469ZM73.9121 53.5381C73.8994 53.4787 73.8905 53.4175 73.8848 53.3545C73.8901 53.4175 73.8994 53.4787 73.9121 53.5381ZM97.4814 53.5381C97.4687 53.4787 97.4598 53.4175 97.4541 53.3545C97.4595 53.4175 97.4687 53.4787 97.4814 53.5381ZM119.181 53.5381C119.168 53.4787 119.159 53.4175 119.153 53.3545C119.159 53.4175 119.168 53.4787 119.181 53.5381ZM132.884 53.5381C132.88 53.5196 132.875 53.5012 132.872 53.4824L132.87 53.4668C132.874 53.4909 132.879 53.5146 132.884 53.5381ZM119.147 53.2129L119.153 53.3506C119.153 53.3519 119.153 53.3532 119.153 53.3545C119.149 53.3083 119.146 53.2611 119.146 53.2129C119.146 53.1701 119.148 53.1281 119.151 53.0869C119.148 53.1281 119.147 53.1702 119.147 53.2129ZM73.8789 53.2129L73.8828 53.3096C73.8809 53.2778 73.8779 53.2456 73.8779 53.2129C73.8779 53.1701 73.8797 53.1281 73.8828 53.0869C73.8797 53.1281 73.8789 53.1702 73.8789 53.2129ZM97.4482 53.2129L97.4521 53.3096C97.4502 53.2778 97.4473 53.2456 97.4473 53.2129C97.4473 53.1701 97.4491 53.1281 97.4521 53.0869C97.4491 53.1281 97.4482 53.1702 97.4482 53.2129ZM95.5156 53.0752L95.5205 53.2129C95.5205 53.1455 95.5154 53.0802 95.5078 53.0166C95.5102 53.036 95.514 53.0554 95.5156 53.0752ZM96.0918 53.041L96.0977 53.2129C96.0977 53.1494 96.0947 53.0873 96.0898 53.0264C96.0902 53.0313 96.0914 53.0361 96.0918 53.041ZM95.4707 52.8174C95.4867 52.8763 95.4974 52.9373 95.5059 53C95.4976 52.9372 95.4867 52.8762 95.4707 52.8174ZM72.1436 52.3682L72.042 52.4629C72.0807 52.4298 72.1163 52.3945 72.1504 52.3584C72.1477 52.3613 72.1463 52.3653 72.1436 52.3682ZM133.121 52.3691C133.11 52.3838 133.099 52.399 133.089 52.4141C133.1 52.3988 133.11 52.383 133.121 52.3682L133.204 52.2705L133.121 52.3691ZM74.2334 52.2705L74.1504 52.3691C74.1762 52.3356 74.2029 52.3022 74.2324 52.2705C74.2622 52.2386 74.2933 52.2086 74.3252 52.1807C74.2934 52.2085 74.263 52.2387 74.2334 52.2705ZM97.8027 52.2705L97.7197 52.3691C97.7455 52.3356 97.7723 52.3022 97.8018 52.2705C97.8315 52.2386 97.8626 52.2086 97.8945 52.1807C97.8628 52.2085 97.8324 52.2387 97.8027 52.2705ZM119.502 52.2705L119.419 52.3691C119.445 52.3356 119.471 52.3022 119.501 52.2705C119.531 52.2385 119.562 52.2087 119.594 52.1807C119.562 52.2085 119.532 52.2387 119.502 52.2705ZM94.9707 52.1025C95.039 52.1505 95.1033 52.2063 95.1631 52.2705C95.1927 52.302 95.2201 52.3348 95.2461 52.3682C95.22 52.3346 95.1919 52.3022 95.1621 52.2705C95.1323 52.2385 95.1013 52.2087 95.0693 52.1807C95.0374 52.1527 95.0047 52.1265 94.9707 52.1025ZM69.2793 50.2949V52.3076H70.6475V52.3086H69.2783V50.2949H69.2793ZM104.261 52.1797C104.28 52.1997 104.298 52.2211 104.314 52.2432L104.261 52.1807C104.25 52.169 104.238 52.1584 104.227 52.1475C104.238 52.1583 104.25 52.1682 104.261 52.1797ZM70.6475 50.3945C71.0453 50.3946 71.3315 50.4771 71.5205 50.626C71.7044 50.771 71.8026 50.9907 71.8027 51.3018C71.8026 51.6126 71.7042 51.8315 71.5205 51.9766C71.3315 52.1255 71.0453 52.208 70.6475 52.208H69.3789V50.3945H70.6475ZM76.3926 51.96V51.9619C76.3545 51.9132 76.315 51.867 76.2734 51.8242C76.3147 51.8667 76.3548 51.9117 76.3926 51.96ZM99.9619 51.96V51.9619C99.9239 51.9132 99.8844 51.867 99.8428 51.8242C99.8841 51.8667 99.9241 51.9117 99.9619 51.96ZM121.661 51.96V51.9619C121.624 51.9149 121.586 51.8706 121.546 51.8291C121.586 51.8703 121.625 51.9134 121.661 51.96ZM135.257 51.8369L135.364 51.9619L135.244 51.8252C135.248 51.8293 135.253 51.8327 135.257 51.8369ZM89.5117 51.8223L89.6045 51.9199C89.5676 51.8777 89.5281 51.8383 89.4873 51.8008C89.4953 51.8081 89.5039 51.8148 89.5117 51.8223ZM120.561 51.8916C120.565 51.892 120.57 51.8931 120.575 51.8936C120.57 51.893 120.565 51.8921 120.56 51.8916L120.425 51.8857L120.561 51.8916ZM95.4697 51.7764L95.585 51.8857C95.543 51.8426 95.4995 51.8025 95.4551 51.7646C95.4598 51.7687 95.465 51.7723 95.4697 51.7764ZM71.8828 51.5371C71.8799 51.5531 71.8747 51.5685 71.8711 51.584C71.8757 51.5641 71.8813 51.5441 71.8848 51.5234L71.8828 51.5371ZM79.4033 51.4531C79.4118 51.4495 79.4202 51.4457 79.4287 51.4424C79.4412 51.4375 79.4542 51.4341 79.4668 51.4297C79.4455 51.4372 79.4242 51.4444 79.4033 51.4531ZM94.5 51.3662C94.6181 51.3769 94.7315 51.3981 94.8398 51.4297C94.787 51.4143 94.7329 51.402 94.6777 51.3916L94.5 51.3662ZM79.5371 51.4072C79.56 51.4007 79.5831 51.3948 79.6064 51.3896C79.5831 51.3948 79.56 51.4007 79.5371 51.4072ZM72.5264 51.1436L72.5322 51.3018C72.5322 51.2429 72.529 51.1857 72.5244 51.1299C72.5248 51.1345 72.526 51.139 72.5264 51.1436ZM85.1025 49.6641C84.9644 49.6642 84.8439 49.7121 84.749 49.8096C84.6538 49.9049 84.6075 50.0254 84.6074 50.1631C84.6074 50.3007 84.6539 50.4213 84.749 50.5166C84.8443 50.6119 84.9649 50.6591 85.1025 50.6592C85.2403 50.6592 85.3607 50.6119 85.4561 50.5166L85.4551 50.5156C85.5526 50.4207 85.6025 50.3014 85.6025 50.1631C85.6025 50.0243 85.5533 49.9037 85.4551 49.8086C85.3586 49.7127 85.2389 49.6641 85.1025 49.6641ZM90.8457 49.6641C90.7076 49.6642 90.587 49.7121 90.4922 49.8096C90.397 49.9049 90.3506 50.0254 90.3506 50.1631C90.3506 50.3007 90.397 50.4213 90.4922 50.5166C90.5874 50.6119 90.7081 50.6591 90.8457 50.6592C90.9834 50.6592 91.1039 50.6118 91.1992 50.5166L91.1982 50.5156C91.2958 50.4207 91.3457 50.3014 91.3457 50.1631C91.3457 50.0243 91.2965 49.9037 91.1982 49.8086C91.1017 49.7127 90.9821 49.6641 90.8457 49.6641ZM85.1025 50.5586C85.1588 50.5586 85.2107 50.5498 85.2578 50.5312C85.2107 50.5501 85.1589 50.5596 85.1025 50.5596L85.0459 50.5537C85.0642 50.5561 85.083 50.5586 85.1025 50.5586ZM90.8467 50.5586C90.9027 50.5585 90.9542 50.5497 91.001 50.5312C90.9538 50.5501 90.902 50.5596 90.8457 50.5596L90.7881 50.5537C90.8071 50.5562 90.8265 50.5586 90.8467 50.5586ZM85.0264 50.5518H85.0215C85.0001 50.5478 84.9798 50.5413 84.96 50.5342C84.9812 50.5418 85.0033 50.5476 85.0264 50.5518ZM90.7695 50.5518H90.7646C90.7432 50.5478 90.723 50.5413 90.7031 50.5342C90.7243 50.5418 90.7465 50.5476 90.7695 50.5518ZM84.8711 50.4883C84.8692 50.4869 84.8671 50.4858 84.8652 50.4844L84.8203 50.4463C84.8362 50.4622 84.8535 50.4757 84.8711 50.4883ZM85.499 50.1016L85.5029 50.1631C85.5029 50.1359 85.4996 50.11 85.4951 50.085C85.4961 50.0905 85.4982 50.0959 85.499 50.1016ZM91.2422 50.1016L91.2461 50.1631C91.2461 50.1359 91.2428 50.11 91.2383 50.085C91.2393 50.0905 91.2414 50.0959 91.2422 50.1016ZM84.7393 49.999C84.7405 49.9961 84.7418 49.9931 84.7432 49.9902L84.7705 49.9404C84.7581 49.959 84.748 49.9787 84.7393 49.999ZM90.4824 49.999C90.4837 49.9961 90.485 49.9931 90.4863 49.9902L90.5137 49.9404C90.5013 49.959 90.4912 49.9787 90.4824 49.999Z" fill="#C7C7C7"/>
</svg>
